<svg xmlns="http://www.w3.org/2000/svg" viewBox="0 0 407.13 126.5"><defs><style>.cls-1{fill:#17753c;}.cls-2{fill:#52c5d1;}.cls-3{fill:#53c5d1;}.cls-4{fill:#54c5d1;}</style></defs><title>USL Simple</title><g id="Layer_2" data-name="Layer 2"><g id="Layer_1-2" data-name="Layer 1"><g id="Layer_1-3" data-name="Layer 1"><path class="cls-1" d="M406,99.42c-.2.2-.7,0-1,0a8.42,8.42,0,0,1-4.9-1.6c-5.2-3.1-9.9-7.3-14.8-11.3a20.91,20.91,0,0,0-10-4.2,19,19,0,0,1-6.1-2c-1.5-.8-2.8-2.6-4-4.2-2.5-3.5-5.3-5.3-8.6-5.9a47.82,47.82,0,0,0-11.3-.8,52.18,52.18,0,0,1-15.6-2.3c-4.9-1.4-9.8-1.5-14.8-1.6a21.39,21.39,0,0,1-6.2-.5,49.93,49.93,0,0,1-8.4-3.5c-1.9-.9-3.6-2.7-5.4-3.4-5.2-2-10.4-3.7-15.8-3.8a12.5,12.5,0,0,1-1.9-.3c-3.9-.7-7.6,1-11.1,3.2a17.51,17.51,0,0,0-4.2,3.6,12.17,12.17,0,0,1-6.9,3.9c-4.2.9-8.4,2.2-12.2,5.7a20.28,20.28,0,0,1-1.8,1.3c-3.8,3-7.8,3.7-12,4-6.6.5-13.3.9-19.9,1.6-5,.5-10.1.7-14.9,2.2-5.4,1.6-10.9,1.2-16.4,2.4a180.66,180.66,0,0,0-21,6.4c-5.3,1.9-10.6,3.8-15.9,5.5a39.83,39.83,0,0,1-16.8,1.2c-4.4-.5-8.9-1.2-13.3-1.6a9.93,9.93,0,0,0-7.3,2.4,11,11,0,0,1-6.5,2.3c-4.3.5-8.7.8-13,2-2.5.7-5.1.4-7.7.5-2.2.1-4.5-.1-6.7,0-8.1.4-16.2.7-24.3,1.3-4.3.3-8.5,1.1-12.8,1.8a4.71,4.71,0,0,0-1.5.6c-5.4,3.7-10.9,7-16.1,11.3-3.7,3.1-7.6,5.7-11.5,8.6-.8.6-1.3,2.7-2.4,2.2-2.3-1,0-4.9,0-7.3a1.49,1.49,0,0,1,.4-.9c1-.8,1.9-1.6,2.9-2.3.4-.3.8-.5,1.2-.8,3.9-3,7.7-6,11.6-8.9,2.7-2,5.5-3.8,8.2-5.6a19.31,19.31,0,0,1,3.6-2.2,22.2,22.2,0,0,1,6.5-2c7-.8,14-1.5,21-1.9,6.8-.4,13.6-.5,20.4-.6a74.79,74.79,0,0,0,16.2-2c2.1-.4,4.3-.6,6.4-1.1a6.76,6.76,0,0,0,2.4-1.2c3.9-3.2,8.1-3.4,12.3-2.9,6.3.6,12.6,2.4,18.9,1.7a55.22,55.22,0,0,0,12.4-3.2c7.6-2.8,15.3-5.6,23-7.9,5.3-1.5,10.6-3.1,15.9-3.1,3.9,0,7.8-1.5,11.6-2.2,2.6-.5,5.2-.8,7.8-1.1,5-.5,9.9-1,14.9-1.4,2.6-.2,5.1-.2,7.7-.5a47.26,47.26,0,0,0,9-1.6,19.16,19.16,0,0,0,6-3.7,25.87,25.87,0,0,1,12.1-5.7c3-.5,5.6-2.5,8.1-5.1a20,20,0,0,1,8.6-5,13.89,13.89,0,0,0,1.9-.6c2.1-.9,4.1-.6,6.2-.2,2.7.5,5.5.4,8.2,1.1,4,1.1,8.1,2,11.8,4.3,3.5,2.1,7,3.5,10.5,5.2,1.6.8,3.3.6,5,.8,4.2.3,8.4.3,12.5.8a62,62,0,0,1,8.3,1.9,48.78,48.78,0,0,0,14.2,1.2,27,27,0,0,1,11.5,1.8,15.58,15.58,0,0,1,7.8,6.6c1.9,3.1,4.3,4.4,6.9,4.6,6.1.5,11.7,3.8,16.8,8.8,3.5,3.4,7.3,5.4,11,7.9.9.6,2.4-.3,3.1.5C407.42,94.42,407.62,97.92,406,99.42Z"/><path class="cls-2" d="M9,73.32c.1-5.6,2.3-10.5,5.1-15.1,3.8-6.4,8.5-12.2,13.2-18,6.7-8.3,13.3-16.7,20-25l3-3.6a1.27,1.27,0,0,1,2.2-.1,28,28,0,0,1,5.8,8.9,7.06,7.06,0,0,1-1.1,6.7c-3,4.2-6.1,8.4-9.3,12.5-6,7.9-12.1,15.7-18,23.6-3.5,4.7-6.8,9.6-8.5,15.3-.4,1.3-.6,2.6-.9,4-.2.9.2,1.2,1.1,1.3,5.3.3,9.8-1.6,14.1-4.4a73.39,73.39,0,0,0,14.7-13.1c10.1-11.3,17.9-24.1,24.8-37.5,1.6-3,3-6.1,4.6-9.1a3.84,3.84,0,0,1,1.1-1.1c.4.4.9.7,1,1.1,1,2.5,3,4.8,2.3,7.8a33.19,33.19,0,0,1-2.3,6.7,206.78,206.78,0,0,1-18,33,110.39,110.39,0,0,1-14.2,17c-4.1,3.9-8.5,7.5-14.1,9.2-7.3,2.1-13.8.6-19.4-4.7-2.6-2.5-4.9-5.2-5.9-8.7C9.72,77.72,9.42,75.52,9,73.32Z"/><path class="cls-3" d="M344.82,25.12c-2,1.7-4.1,3.3-6,5.1a154.62,154.62,0,0,0-17,19.2c-2,2.6-4.8,3.7-8.1,4.7a12.51,12.51,0,0,1,.6-1.8,147.38,147.38,0,0,1,16.8-23.2,111.63,111.63,0,0,1,16.2-15.3,5.28,5.28,0,0,1,5.1-1c1.4.4,2.8.8,4.1,1.3,2,.8,2.4,2.1,1.3,4a95.06,95.06,0,0,0-6.8,15.3,2.4,2.4,0,0,0-.2,1.5c1.5-1.4,3.1-2.8,4.6-4.1a113.48,113.48,0,0,1,16.3-12.2c1.4-.8,2.6-1.1,4.1-.1.9.6,2,1.1,2.9,1.6a11.27,11.27,0,0,1,1.8,1.2c2.1,1.8,2.2,3.1.5,5.3-2.4,2.9-4.9,5.8-7.1,8.9-4.2,5.8-8.2,11.7-12.2,17.7-1.1,1.6-2.4,2.6-4.4,2.5-1.1,0-2.1.1-3.2.2-1.5.1-1.7-.1-1.1-1.4,2.5-5.1,5-10.2,7.7-15.2,1.6-3.1,3.6-6.1,5.4-9.1h.1v-.1l-.1.1c-1.5,1-3.1,1.8-4.6,2.9a90.35,90.35,0,0,0-16.6,15.5c-.7.8-1.4,1.1-2.3.5a24.42,24.42,0,0,1-3.3-2.3,4.08,4.08,0,0,1-1.3-4.6c1.1-3.2,2.4-6.4,3.6-9.5,1.1-2.5,2.3-5,3.4-7.5,0-.1.1-.2.1-.4Z"/><path class="cls-3" d="M92.12,40.22c-1.7-.6-1.9-2-2-3.3s0-2.7,0-4.1c0-1.8.5-2.5,2.2-3a45.12,45.12,0,0,1,5.3-1c1.3-.2,2.4-.5,3-1.9a12.54,12.54,0,0,1,1.6-2.4,1.36,1.36,0,0,1,2.3-.2c1.2,1.1,2.8,1.9,3.3,3.7.1.3.8.4,1.2.5,3.2.6,6.1,1.7,8.2,4.3,2.7,3.4,2.9,7.3,2.1,11.3-1,4.8-3.6,8.9-6.7,12.7a38.13,38.13,0,0,1-13.8,10.7,27.52,27.52,0,0,1-5.6,1.6,3.67,3.67,0,0,1-4.3-2.5c-.2-.5-.5-1-.8-1.7-.4.6-.7,1-1,1.4-3.9,5.5-7.9,11-11.8,16.4a5.07,5.07,0,0,1-4.4,2.2c-1.9,0-3.7.2-5.6.3a5.77,5.77,0,0,1-1.4-.3c.2-.4.3-.9.5-1.3,9.1-14.2,18.3-28.4,27.4-42.7A2.6,2.6,0,0,1,92.12,40.22Zm-.8,19.5a25.49,25.49,0,0,0,2.8-.8,40.41,40.41,0,0,0,15.6-10.4,22.84,22.84,0,0,0,5.3-8c.8-2.1.6-2.5-1.5-3.2a.9.9,0,0,0-.5-.1c-2.7-.8-5.4-.4-8.1-.1a2,2,0,0,0-1.5,1c-3.6,6.5-7.3,12.9-11,19.4A11,11,0,0,1,91.32,59.72Z"/><path class="cls-3" d="M211,43.72c-3,4.7-6,9.1-8.6,13.8-3,5.3-7.8,7.5-13.2,9a1.75,1.75,0,0,1-.5-.1,6,6,0,0,1,.6-1.9c8.1-14.7,16.4-29.3,25.8-43.2a2.14,2.14,0,0,0,.1-1.4c-.5-1.7-1.1-3.4-1.6-5.1a1.6,1.6,0,0,1,1.3-2.2c3.5-.8,6.9-1.8,10.5-2.3a33,33,0,0,1,8.3.2,14.1,14.1,0,0,1,5.2,2.2c3,2,3.5,5.1,2.6,8.4a21.2,21.2,0,0,1-4.7,8.4,47.38,47.38,0,0,1-13.6,10.4c-.6.3-1.1.6-1.8.9,1.1,2,2.2,3.9,3.2,5.9.9,1.7,1.7,3.3,2.5,5.1a4.73,4.73,0,0,1-.5,5.1c-.8,1.1-1.6,2.3-2.5,3.4-.8.9-1.2.7-1.8-.3A152.61,152.61,0,0,0,211,43.72Zm5.2-8.7c.7-.2,1.1-.3,1.4-.4a44.62,44.62,0,0,0,13.1-7.8c2.7-2.3,5.2-4.7,6.7-8,.8-1.8.6-2.2-1.3-2.6-4.6-.9-8.9.6-13.3,2,2.7,2.6,2.1,2.4.7,4.9C221.22,26.92,218.82,30.82,216.22,35Z"/><path class="cls-3" d="M306.92,46.12a144.72,144.72,0,0,1,4.2-21.8c-2.3.8-4.5,1.4-6.5,2.3-3.9,1.6-7.7,3.4-11.5,5.1a5.51,5.51,0,0,0-2,1.7c-1.6,2.3-3.1,4.7-4.6,7.2a12.81,12.81,0,0,0-1.1,3.3c-.2.8-.7,1.2-1.5.9a11.68,11.68,0,0,1-5.7-3.5,3.3,3.3,0,0,1-.2-3.9,63.85,63.85,0,0,1,4.8-7.5,132.59,132.59,0,0,1,25.4-24.8,62.51,62.51,0,0,1,7-4.3,5.93,5.93,0,0,1,5.2-.4c1.3.5,2.7.9,4.1,1.3a6.12,6.12,0,0,1,1.2.5,2.13,2.13,0,0,1,1,3.2c-.8,1.5-1.8,2.8-2.6,4.3l-4.2,8.4c-.3.6-.3,1,.3,1.4a10,10,0,0,1,1.7,1.8c-1.1.3-1.8.6-2.6.8a1.92,1.92,0,0,0-1.6,1.4c-1.8,5.7-3.8,11.3-5.5,17-.7,2.4-1.9,4.3-4.2,5.3C307.92,45.72,307.62,45.82,306.92,46.12Zm-6.8-23.2c.4-.1.7-.1,1.1-.2l10.3-2.7a1.85,1.85,0,0,0,1.4-1.3c1.2-3.3,2.4-6.6,3.7-9.9a1.72,1.72,0,0,0,.1-.8,5.92,5.92,0,0,0-.6.4c-2.9,2.4-5.9,4.6-8.7,7.1s-4.9,5-7.3,7.4a.1.1,0,0,0-.1.1A.1.1,0,0,0,300.12,22.92Z"/><path class="cls-3" d="M244.82,47.32a15.52,15.52,0,0,0,2.1-.4c6.3-1.7,12.5-3.5,18.8-5.2.4-.1.8-.1,1.3-.2.3,1.4-.3,3.4-1.4,3.9a198.79,198.79,0,0,1-23.8,9.9c-2.2.7-3.7,0-5.3-1.6-2.6-2.5-2.4-4.7-.9-7.7a240.71,240.71,0,0,1,17-27.4c1-1.4,1.9-2.7,3.1-4.3-2.8.3-3.6-1.6-4.4-3.5-.3-.8-.1-1.1.7-1.3,2.6-.6,5.2-1.1,7.8-1.7a3.36,3.36,0,0,0,1.5-.9c.7-.8,1.3-1.7,2-2.5,1-1.1,1.8-1.2,3.1-.4a2.19,2.19,0,0,1,.5.3c1.7,2,3.8,1.8,6.1,1.5,5.4-.6,10.8-1,16.2-1.4h1.2a2.51,2.51,0,0,1-2.2,2.9c-5.6,1.1-11.2,2.4-16.8,3.3a7.1,7.1,0,0,0-5.6,3.7c-1.9,3.3-4.2,6.3-6.3,9.5-.2.4-.5.7-.8,1.2,5.6-1,11-2,16.7-3.1-.9,2.5-2.2,4-4.4,4.6L255.52,31a1.85,1.85,0,0,0-1.2.7c-3.2,5.3-6.3,10.5-9.5,15.6h0l-.1.1Z"/><path class="cls-3" d="M122.32,79.82c-4.4.2-7.6-4-8.5-6.9-.3-1,.1-1.5,1.1-1.5,6.1-.4,11.9-1.8,17-5.1a14.44,14.44,0,0,0,3.9-3.5c2.2-2.6,1.7-4.9-1.1-6.8-1.4-.9-2.9-1.7-4.3-2.7-3.4-2.3-4.5-5-3.5-9a23.26,23.26,0,0,1,5.3-9.6,77.43,77.43,0,0,1,20.6-17.2c2-1.1,4.1-2.3,6.5-2.1a4.52,4.52,0,0,1,2.6.9,24.27,24.27,0,0,1,3.3,4.6c.7,1.3.4,1.8-.9,2.4a111.45,111.45,0,0,0-26.5,19.2,15.42,15.42,0,0,0-2.7,3.6c-1.6,2.8-1.1,5,1.6,6.8,1,.7,2.1,1.2,3.1,1.9,4.4,2.7,5.4,6.3,3.2,10.9a23.17,23.17,0,0,1-6.9,8,27.24,27.24,0,0,1-12,5.7A5.26,5.26,0,0,1,122.32,79.82Z"/><path class="cls-3" d="M154.12,73.62c9.3-16.2,18.5-32.3,27.8-48.5-.1-.1-.1-.2-.2-.2-4.9,1.6-9.9,3.3-14.7,4.9-.1-.2-.2-.3-.2-.4.8-2.6,1.4-5.4,3.4-7.4a9.24,9.24,0,0,1,3.4-2.1c3.9-1.2,7.9-2.2,11.9-3.2a3.24,3.24,0,0,0,2.4-1.8c1.3-2.6,1.6-2.8,3.9-1.2,2.1,1.4,4,.7,6.1.4,1.6-.3,3.2-.6,4.8-.8,2.4-.3,4.3.8,6.1,2.1.9.6.3,1.1-.4,1.3-2.8.9-5.7,1.7-8.5,2.5a7.37,7.37,0,0,1-1.4.4c-3.1.4-4.6,2.4-6.1,5-8.2,14.8-16.8,29.4-26.1,43.5-1.4,2.1-3,3.7-5.7,4.2a44.19,44.19,0,0,0-4.8,1.5l-1.5.3A.76.76,0,0,0,154.12,73.62Z"/><path class="cls-4" d="M304.52,99c4.1.1,7.9.3,11.7.4,0,2.2-.4,2.9-2.2,3.1l-10.2,1.5a2.73,2.73,0,0,1-3.3-1.9c-.2-.5-.5-.9-.7-1.4a4.22,4.22,0,0,1-.2-3.8,99.38,99.38,0,0,1,9-16.3c1.1-1.7,2.2-3.4,3.4-5.2-1.7-.4-1.9-1.9-2.4-3.2-.3-.8-.1-1.3.9-1.4,1.3-.1,2.6-.4,3.9-.4a2.36,2.36,0,0,0,2.1-1.1c.3-.5.7-1,1-1.5.8-1,1.6-1.1,2.1,0,1,2.1,2.5,2.6,4.7,2.7A78.29,78.29,0,0,1,334,72a2.54,2.54,0,0,1,.7.2c-.2,1.8-.9,2.5-2.6,2.5-3.8,0-7.7,0-11.5.1-.4,0-1.1.1-1.3.4-2.2,3.1-4.3,6.3-6.4,9.5,3.3.3,6.5.6,9.6.8-.5,2.1-1.6,3-3.6,3.1-2.7.1-5.3.2-8,.4a1.49,1.49,0,0,0-.9.4C308.22,92.62,306.42,95.72,304.52,99Z"/><path class="cls-4" d="M258.82,96.12a3.48,3.48,0,0,1-1.2,3.7c-2.6,2.2-5.2,4.5-7.8,6.7-1.7,1.5-3.5,2.9-5.2,4.5a6.26,6.26,0,0,1-4.9,1.3c-.9,0-1.4-.6-1.6-1.5a18.54,18.54,0,0,1,.4-7.8c1.5-7.3,3.2-14.5,4.8-21.7.7-2.9,1.3-5.8,2-8.7.4-1.6.9-2.1,2.6-2.1a12.05,12.05,0,0,1,1.9,0c1.6.2,2.3.9,2.1,2.6a36.91,36.91,0,0,1-.8,4.6c-1.7,6.8-3.5,13.6-5.2,20.4a40.71,40.71,0,0,0-1,7A82.47,82.47,0,0,1,258.82,96.12Z"/><path class="cls-4" d="M307,68.12a4.48,4.48,0,0,1-1,4c-4.2,5.6-8.4,11.2-12.4,16.9-2.7,3.9-5,8.2-7.5,12.3-.8,1.4-1.3,1.6-2.8.7a5,5,0,0,1-2.7-5.2c.7-4.8,1.3-9.6,2.2-14.3.8-3.9,2-7.7,3.1-11.6.4-1.5.8-1.6,2.3-1,2.1,1,2.9,2.4,2.4,4.7-1,4.6-2.1,9.3-3.1,13.9a41.66,41.66,0,0,0-.8,4.9A163.16,163.16,0,0,1,307,68.12Z"/><path class="cls-4" d="M261.62,103.12c.5-1.8,1-3.6,1.6-5.4,3.1-8.7,6.3-17.4,9.5-26.1.7-1.9,2.5-2.4,4.2-1.1a1.8,1.8,0,0,1,.7,1.5,8.76,8.76,0,0,1-.6,2.7c-3.1,8.2-6.2,16.5-9.2,24.7a3.55,3.55,0,0,1-2.4,2.5,37.27,37.27,0,0,0-3.5,1.6A1.38,1.38,0,0,0,261.62,103.12Z"/></g></g></g></svg>